<?xml version="1.0" standalone="no"?>
<!DOCTYPE svg PUBLIC "-//W3C//DTD SVG 20010904//EN"
 "http://www.w3.org/TR/2001/REC-SVG-20010904/DTD/svg10.dtd">
<svg version="1.0" xmlns="http://www.w3.org/2000/svg"
 width="200.000000pt" height="200.000000pt" viewBox="0 0 200.000000 200.000000"
 preserveAspectRatio="xMidYMid meet">
<metadata>
Created by potrace 1.14, written by Peter Selinger 2001-2017
</metadata>
<g transform="translate(0.000000,200.000000) scale(0.100000,-0.100000)"
fill="#000000" stroke="none">
<path d="M944 1420 c-205 -29 -361 -240 -325 -436 30 -162 139 -281 291 -320
178 -45 363 44 444 216 28 58 31 75 31 160 0 82 -4 103 -27 152 -31 67 -105
150 -163 183 -68 40 -166 57 -251 45z m219 -44 c148 -72 232 -234 206 -397
-26 -161 -145 -279 -313 -310 -153 -28 -322 66 -394 219 -23 49 -27 70 -27
152 0 81 4 103 27 151 46 99 127 171 231 205 26 9 74 13 128 11 69 -2 96 -8
142 -31z"/>
<path d="M905 1213 c-23 -6 -55 -32 -55 -45 0 -5 4 -7 9 -4 4 3 6 -5 4 -18 -3
-13 0 -33 6 -45 10 -18 8 -22 -24 -35 -68 -29 -40 -54 83 -76 59 -11 85 -11
145 0 115 20 142 41 96 73 -13 9 -16 17 -10 22 16 9 13 52 -4 59 -8 3 -15 15
-15 26 0 31 -55 50 -142 49 -40 -1 -82 -4 -93 -6z m243 -105 c-2 -6 -10 -14
-16 -16 -7 -2 -10 2 -6 12 7 18 28 22 22 4z"/>
<path d="M688 1006 c-26 -33 -27 -34 -8 -51 10 -9 23 -14 28 -11 5 3 12 -4 15
-15 4 -16 11 -20 26 -16 12 3 22 -1 25 -9 3 -8 17 -14 31 -14 14 0 25 -4 25
-10 0 -5 11 -10 25 -10 14 0 25 5 25 11 0 5 5 7 10 4 6 -4 8 -10 6 -14 -3 -4
4 -7 14 -8 20 -2 34 33 18 44 -7 3 -8 1 -4 -5 4 -7 2 -12 -3 -12 -6 0 -11 3
-11 8 0 11 -58 34 -69 28 -5 -4 -12 -2 -16 4 -3 5 -13 10 -22 10 -9 0 -21 8
-28 17 -11 15 -18 15 -49 6 -43 -13 -48 -2 -14 34 14 15 18 27 12 33 -6 6 -19
-3 -36 -24z m63 -73 c-8 -15 -10 -15 -11 -2 0 17 10 32 18 25 2 -3 -1 -13 -7
-23z m64 -31 c-8 -8 -25 10 -19 20 4 6 9 5 15 -3 4 -7 6 -15 4 -17z m42 -14
c-3 -7 -5 -2 -5 12 0 14 2 19 5 13 2 -7 2 -19 0 -25z"/>
<path d="M1292 1003 c-1 -39 21 -61 43 -43 8 7 15 17 15 22 0 7 -4 7 -12 0 -9
-7 -17 -5 -28 6 -13 14 -12 15 3 9 9 -3 19 -2 22 3 4 6 -3 10 -14 10 -10 0
-21 6 -24 13 -2 6 -4 -2 -5 -20z"/>
<path d="M1245 1000 c-3 -5 3 -22 14 -36 12 -15 21 -31 21 -37 0 -6 -6 -2 -14
8 -14 19 -71 29 -108 18 -23 -6 -24 -55 -3 -73 13 -11 21 -10 43 0 15 8 32 14
37 15 6 0 9 7 7 14 -1 7 2 9 9 6 6 -4 22 -2 35 5 l23 13 -22 31 c-12 17 -20
33 -19 36 2 2 -1 6 -6 8 -6 2 -13 -2 -17 -8z m-41 -65 c13 -14 16 -13 25 2 6
10 11 13 11 7 0 -6 -11 -21 -25 -34 -20 -19 -27 -21 -40 -10 -19 16 -20 50 -1
50 8 0 21 -7 30 -15z"/>
<path d="M1097 944 c-4 -4 -7 -15 -7 -24 0 -11 -8 -16 -22 -16 -14 1 -24 -6
-26 -18 -5 -24 12 -40 35 -31 17 7 17 8 -1 14 -19 7 -19 8 2 13 15 4 22 2 22
-8 0 -8 6 -14 14 -14 12 0 13 7 5 38 -6 20 -11 41 -12 45 -1 5 -6 5 -10 1z"/>
<path d="M963 880 c0 -20 3 -26 9 -18 6 10 8 10 8 1 0 -7 6 -13 14 -13 8 0 13
9 12 24 0 13 -4 22 -8 19 -5 -2 -8 1 -8 6 0 6 -6 11 -13 11 -9 0 -14 -12 -14
-30z"/>
</g>
</svg>
